<svg width="180" height="191" viewBox="0 0 180 191" fill="none" xmlns="http://www.w3.org/2000/svg">
<path d="M132.729 91.242C158.757 91.242 179.857 70.8168 179.857 45.621C179.857 20.4252 158.757 0 132.729 0C106.701 0 85.6011 20.4252 85.6011 45.621C85.6011 70.8168 106.701 91.242 132.729 91.242Z" fill="#A3EAE7"/>
<path d="M37.703 156.309C58.5258 156.309 75.406 139.969 75.406 119.812C75.406 99.6552 58.5258 83.3149 37.703 83.3149C16.8802 83.3149 0 99.6552 0 119.812C0 139.969 16.8802 156.309 37.703 156.309Z" fill="#28B5BD"/>
<path d="M131.471 189.42C146.085 188.718 157.381 176.683 156.701 162.54C156.022 148.396 143.624 137.499 129.01 138.202C114.397 138.904 103.101 150.939 103.78 165.082C104.46 179.226 116.858 190.123 131.471 189.42Z" fill="#228F9B"/>
</svg>
